<svg width="24" height="24" viewBox="0 0 24 24" fill="none" xmlns="http://www.w3.org/2000/svg">
<g id="_x32_">
<g id="SVGRepo_iconCarrier">
<g id="Group">
<path id="Vector" d="M4.1529 21.7843C4.26371 23.0384 5.31418 24 6.57352 24H17.4262C18.6851 24 19.736 23.0384 19.8468 21.7843L21.0488 6.03764H2.95093L4.1529 21.7843ZM19.7273 7.26235L18.6269 21.6762C18.5715 22.3029 18.0553 22.7753 17.4262 22.7753H6.57352C5.94446 22.7753 5.42818 22.3029 5.37394 21.691L4.27247 7.26235H19.7273Z" fill="white"/>
<path id="Vector_2" d="M8.5761 20.4065C8.85158 20.3902 9.06126 20.1534 9.04448 19.8783L8.5693 10.3986C8.55252 10.1231 8.31613 9.91345 8.04065 9.93018C7.76516 9.94692 7.55549 10.1837 7.57222 10.4588L8.0474 19.9385C8.06418 20.2139 8.30099 20.4232 8.5761 20.4065Z" fill="white"/>
<path id="Vector_3" d="M12 20.4077C12.2759 20.4077 12.4995 20.1844 12.4995 19.9086V10.4285C12.4995 10.1526 12.2759 9.92935 12 9.92935C11.7242 9.92935 11.5005 10.1526 11.5005 10.4285V19.9086C11.5005 20.1844 11.7242 20.4077 12 20.4077Z" fill="white"/>
<path id="Vector_4" d="M15.4241 20.4065C15.6997 20.4232 15.9361 20.2139 15.9528 19.9385L16.4276 10.4588C16.4439 10.1837 16.2347 9.94692 15.9592 9.93018C15.6837 9.91345 15.4473 10.1231 15.4306 10.3986L14.9558 19.8783C14.939 20.1533 15.1487 20.3902 15.4241 20.4065Z" fill="white"/>
<path id="Vector_5" d="M20.5836 3.02423C20.5836 3.02423 18.9862 2.75873 18.552 2.62678C18.1629 2.50837 14.7648 1.99088 14.7648 1.99088L14.6372 1.08633C14.5495 0.462047 14.0384 0 13.4364 0H11.9996H10.5629C9.9617 0 9.45063 0.462047 9.36213 1.08633L9.23458 1.99088C9.23458 1.99088 5.83759 2.50833 5.44811 2.62678C5.014 2.75873 3.41575 3.02423 3.41575 3.02423C2.93181 3.15773 2.59375 3.61744 2.59375 4.14281V5.17059H11.9997H21.4064V4.14281C21.4064 3.61744 21.0683 3.15773 20.5836 3.02423ZM12.9525 1.81988H11.0477C10.8786 1.81988 10.7415 1.68277 10.7415 1.51369C10.7415 1.34461 10.8786 1.2075 11.0477 1.2075H12.9525C13.1215 1.2075 13.2587 1.34461 13.2587 1.51369C13.2587 1.68277 13.1215 1.81988 12.9525 1.81988Z" fill="white"/>
</g>
</g>
</g>
</svg>
