<svg width="24" height="24" viewBox="0 0 24 24" fill="none" xmlns="http://www.w3.org/2000/svg">
<g id="Frame">
<g clip-path="url(#clip0_368_478)">
<g id="SVGRepo_bgCarrier">
<path id="Vector" d="M24 0H0V24H24V0Z" fill="#FCFF4D"/>
</g>
<g id="SVGRepo_iconCarrier">
<g id="Layer 2">
<g id="invisible box">
<path id="Vector_2" d="M22 2H2V22H22V2Z" stroke="black" stroke-width="0.000533333"/>
</g>
<g id="Q3 icons">
<g id="Group">
<path id="Vector_3" d="M7.83333 15.75C8.29357 15.75 8.66667 15.3769 8.66667 14.9167C8.66667 14.4564 8.29357 14.0833 7.83333 14.0833C7.3731 14.0833 7 14.4564 7 14.9167C7 15.3769 7.3731 15.75 7.83333 15.75Z" fill="black" stroke="black" stroke-width="0.000533333"/>
<path id="Vector_4" d="M16.1668 14.0833H11.1668C10.9458 14.0833 10.7339 14.1711 10.5776 14.3274C10.4213 14.4837 10.3335 14.6957 10.3335 14.9167C10.3335 15.1377 10.4213 15.3497 10.5776 15.5059C10.7339 15.6622 10.9458 15.75 11.1668 15.75H16.1668C16.3878 15.75 16.5998 15.6622 16.7561 15.5059C16.9124 15.3497 17.0002 15.1377 17.0002 14.9167C17.0002 14.6957 16.9124 14.4837 16.7561 14.3274C16.5998 14.1711 16.3878 14.0833 16.1668 14.0833Z" fill="black" stroke="black" stroke-width="0.000533333"/>
<path id="Vector_5" d="M7.83333 18.25C8.29357 18.25 8.66667 17.8769 8.66667 17.4167C8.66667 16.9564 8.29357 16.5833 7.83333 16.5833C7.3731 16.5833 7 16.9564 7 17.4167C7 17.8769 7.3731 18.25 7.83333 18.25Z" fill="black" stroke="black" stroke-width="0.000533333"/>
<path id="Vector_6" d="M16.1668 16.5833H11.1668C10.9458 16.5833 10.7339 16.6711 10.5776 16.8274C10.4213 16.9837 10.3335 17.1957 10.3335 17.4167C10.3335 17.6377 10.4213 17.8497 10.5776 18.0059C10.7339 18.1622 10.9458 18.25 11.1668 18.25H16.1668C16.3878 18.25 16.5998 18.1622 16.7561 18.0059C16.9124 17.8497 17.0002 17.6377 17.0002 17.4167C17.0002 17.1957 16.9124 16.9837 16.7561 16.8274C16.5998 16.6711 16.3878 16.5833 16.1668 16.5833Z" fill="black" stroke="black" stroke-width="0.000533333"/>
<path id="Vector_7" d="M12 7.83334C12.4945 7.83334 12.9778 7.68672 13.3889 7.41202C13.8 7.13732 14.1205 6.74687 14.3097 6.29005C14.4989 5.83324 14.5484 5.33057 14.452 4.84562C14.3555 4.36067 14.1174 3.91521 13.7678 3.56558C13.4181 3.21595 12.9727 2.97784 12.4877 2.88138C12.0028 2.78492 11.5001 2.83443 11.0433 3.02365C10.5865 3.21286 10.196 3.5333 9.92133 3.94442C9.64662 4.35554 9.5 4.83889 9.5 5.33334C9.5 5.99639 9.76339 6.63227 10.2322 7.10111C10.7011 7.56995 11.337 7.83334 12 7.83334ZM12 4.50001C12.1648 4.50001 12.3259 4.54889 12.463 4.64045C12.6 4.73202 12.7068 4.86217 12.7699 5.01444C12.833 5.16671 12.8495 5.33427 12.8173 5.49592C12.7852 5.65757 12.7058 5.80606 12.5893 5.9226C12.4727 6.03914 12.3242 6.11851 12.1626 6.15067C12.0009 6.18282 11.8334 6.16632 11.6811 6.10324C11.5288 6.04017 11.3987 5.93336 11.3071 5.79632C11.2155 5.65928 11.1667 5.49816 11.1667 5.33334C11.1667 5.11233 11.2545 4.90037 11.4107 4.74409C11.567 4.58781 11.779 4.50001 12 4.50001Z" fill="black" stroke="black" stroke-width="0.000533333"/>
<path id="Vector_8" d="M7.41699 10.3333V12C7.41699 12.221 7.50479 12.433 7.66107 12.5893C7.81735 12.7455 8.02931 12.8333 8.25033 12.8333H15.7503C15.9713 12.8333 16.1833 12.7455 16.3396 12.5893C16.4959 12.433 16.5837 12.221 16.5837 12V10.3333C15.2842 9.2827 13.6711 8.69612 12.0003 8.66667C10.3295 8.69612 8.71644 9.2827 7.41699 10.3333ZM9.12533 11.1667C9.9908 10.6343 10.9843 10.3463 12.0003 10.3333C13.0163 10.3463 14.0098 10.6343 14.8753 11.1667H9.12533Z" fill="black" stroke="black" stroke-width="0.000533333"/>
<path id="Vector_9" d="M19.0834 2.83334H17.0001C16.7791 2.83334 16.5671 2.92114 16.4108 3.07742C16.2546 3.2337 16.1668 3.44566 16.1668 3.66667C16.1668 3.88769 16.2546 4.09965 16.4108 4.25593C16.5671 4.41221 16.7791 4.50001 17.0001 4.50001H18.6668V19.5H5.33343V4.50001H7.00009C7.22111 4.50001 7.43307 4.41221 7.58935 4.25593C7.74563 4.09965 7.83343 3.88769 7.83343 3.66667C7.83343 3.44566 7.74563 3.2337 7.58935 3.07742C7.43307 2.92114 7.22111 2.83334 7.00009 2.83334H4.91676C4.75104 2.82752 4.5859 2.85587 4.43161 2.91663C4.27732 2.97739 4.13718 3.06925 4.01993 3.18651C3.90267 3.30376 3.81081 3.4439 3.75005 3.59819C3.68929 3.75248 3.66094 3.91762 3.66676 4.08334V19.9167C3.66094 20.0824 3.68929 20.2475 3.75005 20.4018C3.81081 20.5561 3.90267 20.6963 4.01993 20.8135C4.13718 20.9308 4.27732 21.0226 4.43161 21.0834C4.5859 21.1441 4.75104 21.1725 4.91676 21.1667H19.0834C19.2491 21.1725 19.4143 21.1441 19.5686 21.0834C19.7229 21.0226 19.863 20.9308 19.9803 20.8135C20.0975 20.6963 20.1894 20.5561 20.2501 20.4018C20.3109 20.2475 20.3392 20.0824 20.3334 19.9167V4.08334C20.3392 3.91762 20.3109 3.75248 20.2501 3.59819C20.1894 3.4439 20.0975 3.30376 19.9803 3.18651C19.863 3.06925 19.7229 2.97739 19.5686 2.91663C19.4143 2.85587 19.2491 2.82752 19.0834 2.83334Z" fill="black" stroke="black" stroke-width="0.000533333"/>
</g>
</g>
</g>
</g>
</g>
</g>
<defs>
<clipPath id="clip0_368_478">
<rect width="24" height="24" rx="2" fill="white"/>
</clipPath>
</defs>
</svg>
