<svg width="24" height="24" viewBox="0 0 24 24" fill="none" xmlns="http://www.w3.org/2000/svg">
<g id="Frame">
<g clip-path="url(#clip0_319_245)">
<g id="SVGRepo_bgCarrier">
<path id="Vector" d="M24 0H0V24H24V0Z" fill="#7ED0EC"/>
</g>
<g id="SVGRepo_iconCarrier">
<g id="Complete">
<g id="edit">
<g id="Group">
<path id="Vector_2" d="M18.1538 15.0769V18.1539C18.1538 18.5619 17.9917 18.9532 17.7032 19.2417C17.4146 19.5302 17.0233 19.6923 16.6153 19.6923H5.84608C5.43805 19.6923 5.04674 19.5302 4.75822 19.2417C4.4697 18.9532 4.30762 18.5619 4.30762 18.1539V7.38462C4.30762 6.9766 4.4697 6.58528 4.75822 6.29677C5.04674 6.00825 5.43805 5.84616 5.84608 5.84616H8.923" stroke="black" stroke-width="1.72308" stroke-linecap="round" stroke-linejoin="round"/>
<path id="Vector_3" d="M12.3846 14.9231L19.6923 7.53846L16.4616 4.30769L9.15387 11.6154L8.9231 15.0769L12.3846 14.9231Z" stroke="black" stroke-width="1.72308" stroke-linecap="round" stroke-linejoin="round"/>
</g>
</g>
</g>
</g>
</g>
</g>
<defs>
<clipPath id="clip0_319_245">
<rect width="24" height="24" rx="2" fill="white"/>
</clipPath>
</defs>
</svg>
