<svg width="24" height="24" viewBox="0 0 24 24" fill="none" xmlns="http://www.w3.org/2000/svg">
<g id="_x32_">
<g clip-path="url(#clip0_319_217)">
<g id="SVGRepo_bgCarrier">
<path id="Vector" d="M24 0H0V24H24V0Z" fill="#FF0000"/>
</g>
<g id="SVGRepo_iconCarrier">
<g id="Group">
<path id="Vector_2" d="M6.22999 19.1943C6.31147 20.1165 7.08388 20.8235 8.00986 20.8235H15.9897C16.9155 20.8235 17.6881 20.1165 17.7697 19.1943L18.6535 7.61591H5.34619L6.22999 19.1943ZM17.6817 8.51642L16.8727 19.1149C16.8319 19.5757 16.4523 19.923 15.9897 19.923H8.00986C7.54732 19.923 7.1677 19.5757 7.12782 19.1258L6.31792 8.51642H17.6817Z" fill="black" stroke="black" stroke-width="0.126379"/>
<path id="Vector_3" d="M9.48224 18.1813C9.6848 18.1692 9.83897 17.9951 9.82663 17.7929L9.47724 10.8225C9.4649 10.6199 9.29109 10.4658 9.08852 10.4781C8.88596 10.4904 8.73179 10.6645 8.7441 10.8668L9.09349 17.8371C9.10583 18.0397 9.27995 18.1936 9.48224 18.1813Z" fill="black" stroke="black" stroke-width="0.126379"/>
<path id="Vector_4" d="M11.9999 18.1821C12.2027 18.1821 12.3672 18.018 12.3672 17.8151V10.8445C12.3672 10.6416 12.2027 10.4775 11.9999 10.4775C11.797 10.4775 11.6326 10.6416 11.6326 10.8445V17.8151C11.6326 18.018 11.797 18.1821 11.9999 18.1821Z" fill="black" stroke="black" stroke-width="0.126379"/>
<path id="Vector_5" d="M14.5177 18.1813C14.7203 18.1936 14.8941 18.0397 14.9064 17.8371L15.2555 10.8668C15.2675 10.6645 15.1137 10.4904 14.9111 10.4781C14.7085 10.4658 14.5347 10.6199 14.5224 10.8225L14.1733 17.7929C14.161 17.9951 14.3152 18.1692 14.5177 18.1813Z" fill="black" stroke="black" stroke-width="0.126379"/>
<path id="Vector_6" d="M18.3113 5.40017C18.3113 5.40017 17.1367 5.20495 16.8175 5.10792C16.5314 5.02086 14.0328 4.64035 14.0328 4.64035L13.9389 3.97524C13.8745 3.51621 13.4987 3.17647 13.056 3.17647H11.9996H10.9431C10.5011 3.17647 10.1253 3.51621 10.0602 3.97524L9.96646 4.64035C9.96646 4.64035 7.46868 5.02083 7.18229 5.10792C6.86309 5.20495 5.68791 5.40017 5.68791 5.40017C5.33207 5.49833 5.0835 5.83635 5.0835 6.22265V6.97837H11.9996H18.9163V6.22265C18.9163 5.83635 18.6677 5.49833 18.3113 5.40017ZM12.7002 4.51461H11.2996C11.1753 4.51461 11.0745 4.4138 11.0745 4.28947C11.0745 4.16515 11.1753 4.06434 11.2996 4.06434H12.7002C12.8245 4.06434 12.9253 4.16515 12.9253 4.28947C12.9253 4.4138 12.8245 4.51461 12.7002 4.51461Z" fill="black" stroke="black" stroke-width="0.126379"/>
</g>
</g>
</g>
</g>
<defs>
<clipPath id="clip0_319_217">
<rect width="24" height="24" rx="2" fill="white"/>
</clipPath>
</defs>
</svg>
